<svg version="1.1" xmlns="http://www.w3.org/2000/svg" viewBox="0 0 459.16110237019166 296.69367200569263" width="459.16110237019166" height="296.69367200569263">
  <!-- svg-source:excalidraw -->
  
  <defs>
    <style class="style-fonts">
      @font-face {
        font-family: "Virgil";
        src: url("https://excalidraw.com/Virgil.woff2");
      }
      @font-face {
        font-family: "Cascadia";
        src: url("https://excalidraw.com/Cascadia.woff2");
      }
      @font-face {
        font-family: "Assistant";
        src: url("https://app.excalidraw.com//dist/excalidraw-assets/Assistant-Regular.woff2");
      }
    </style>
    
  </defs>
  <rect x="0" y="0" width="459.16110237019166" height="296.69367200569263" fill="#ffffff"></rect><g stroke-linecap="round" transform="translate(10 33.40125034174952) rotate(0 75.32685623130143 43.5221836003075)"><path d="M21.76 0 C44.57 0, 67.37 0, 128.89 0 C143.4 0, 150.65 7.25, 150.65 21.76 C150.65 37.06, 150.65 52.36, 150.65 65.28 C150.65 79.79, 143.4 87.04, 128.89 87.04 C91.69 87.04, 54.49 87.04, 21.76 87.04 C7.25 87.04, 0 79.79, 0 65.28 C0 48.83, 0 32.38, 0 21.76 C0 7.25, 7.25 0, 21.76 0" stroke="none" stroke-width="0" fill="#e9ecef"></path><path d="M21.76 0 C46.63 0, 71.5 0, 128.89 0 M21.76 0 C46.46 0, 71.16 0, 128.89 0 M128.89 0 C143.4 0, 150.65 7.25, 150.65 21.76 M128.89 0 C143.4 0, 150.65 7.25, 150.65 21.76 M150.65 21.76 C150.65 34.53, 150.65 47.3, 150.65 65.28 M150.65 21.76 C150.65 34.92, 150.65 48.09, 150.65 65.28 M150.65 65.28 C150.65 79.79, 143.4 87.04, 128.89 87.04 M150.65 65.28 C150.65 79.79, 143.4 87.04, 128.89 87.04 M128.89 87.04 C90.12 87.04, 51.34 87.04, 21.76 87.04 M128.89 87.04 C106.8 87.04, 84.71 87.04, 21.76 87.04 M21.76 87.04 C7.25 87.04, 0 79.79, 0 65.28 M21.76 87.04 C7.25 87.04, 0 79.79, 0 65.28 M0 65.28 C0 51.66, 0 38.04, 0 21.76 M0 65.28 C0 48.31, 0 31.34, 0 21.76 M0 21.76 C0 7.25, 7.25 0, 21.76 0 M0 21.76 C0 7.25, 7.25 0, 21.76 0" stroke="#1971c2" stroke-width="1" fill="none"></path></g><g stroke-linecap="round" transform="translate(172.4674303644989 9.999999999999943) rotate(0 138.34683600284637 138.34683600284635)"><path d="M276.69 138.35 C276.69 142.16, 276.54 145.98, 276.22 149.77 C275.91 153.57, 275.43 157.36, 274.81 161.12 C274.18 164.87, 273.4 168.62, 272.46 172.31 C271.53 176, 270.43 179.67, 269.2 183.27 C267.96 186.87, 266.57 190.43, 265.04 193.92 C263.51 197.41, 261.83 200.84, 260.02 204.19 C258.21 207.54, 256.25 210.83, 254.17 214.02 C252.08 217.2, 249.86 220.32, 247.52 223.32 C245.18 226.33, 242.71 229.24, 240.13 232.05 C237.55 234.85, 234.85 237.55, 232.05 240.13 C229.24 242.71, 226.33 245.18, 223.32 247.52 C220.32 249.86, 217.2 252.08, 214.02 254.17 C210.83 256.25, 207.54 258.21, 204.19 260.02 C200.84 261.83, 197.41 263.51, 193.92 265.04 C190.43 266.57, 186.87 267.96, 183.27 269.2 C179.67 270.43, 176 271.53, 172.31 272.46 C168.62 273.4, 164.87 274.18, 161.12 274.81 C157.36 275.43, 153.57 275.91, 149.77 276.22 C145.98 276.54, 142.16 276.69, 138.35 276.69 C134.54 276.69, 130.72 276.54, 126.92 276.22 C123.13 275.91, 119.33 275.43, 115.58 274.81 C111.82 274.18, 108.08 273.4, 104.38 272.46 C100.69 271.53, 97.03 270.43, 93.43 269.2 C89.82 267.96, 86.26 266.57, 82.77 265.04 C79.29 263.51, 75.85 261.83, 72.5 260.02 C69.15 258.21, 65.87 256.25, 62.68 254.17 C59.49 252.08, 56.38 249.86, 53.37 247.52 C50.37 245.18, 47.45 242.71, 44.65 240.13 C41.85 237.55, 39.14 234.85, 36.56 232.05 C33.98 229.24, 31.51 226.33, 29.17 223.32 C26.83 220.32, 24.61 217.2, 22.53 214.02 C20.44 210.83, 18.49 207.54, 16.67 204.19 C14.86 200.84, 13.18 197.41, 11.65 193.92 C10.12 190.43, 8.73 186.87, 7.5 183.27 C6.26 179.67, 5.17 176, 4.23 172.31 C3.3 168.62, 2.51 164.87, 1.89 161.12 C1.26 157.36, 0.79 153.57, 0.47 149.77 C0.16 145.98, 0 142.16, 0 138.35 C0 134.54, 0.16 130.72, 0.47 126.92 C0.79 123.13, 1.26 119.33, 1.89 115.58 C2.51 111.82, 3.3 108.08, 4.23 104.38 C5.17 100.69, 6.26 97.03, 7.5 93.43 C8.73 89.82, 10.12 86.26, 11.65 82.77 C13.18 79.29, 14.86 75.85, 16.67 72.5 C18.49 69.15, 20.44 65.87, 22.53 62.68 C24.61 59.49, 26.83 56.38, 29.17 53.37 C31.51 50.37, 33.98 47.45, 36.56 44.65 C39.14 41.85, 41.85 39.14, 44.65 36.56 C47.45 33.98, 50.37 31.51, 53.37 29.17 C56.38 26.83, 59.49 24.61, 62.68 22.53 C65.87 20.44, 69.15 18.49, 72.5 16.67 C75.85 14.86, 79.29 13.18, 82.77 11.65 C86.26 10.12, 89.82 8.73, 93.43 7.5 C97.03 6.26, 100.69 5.17, 104.38 4.23 C108.08 3.3, 111.82 2.51, 115.58 1.89 C119.33 1.26, 123.13 0.79, 126.92 0.47 C130.72 0.16, 134.54 0, 138.35 0 C142.16 0, 145.98 0.16, 149.77 0.47 C153.57 0.79, 157.36 1.26, 161.12 1.89 C164.87 2.51, 168.62 3.3, 172.31 4.23 C176 5.17, 179.67 6.26, 183.27 7.5 C186.87 8.73, 190.43 10.12, 193.92 11.65 C197.41 13.18, 200.84 14.86, 204.19 16.67 C207.54 18.49, 210.83 20.44, 214.02 22.53 C217.2 24.61, 220.32 26.83, 223.32 29.17 C226.33 31.51, 229.24 33.98, 232.05 36.56 C234.85 39.14, 237.55 41.85, 240.13 44.65 C242.71 47.45, 245.18 50.37, 247.52 53.37 C249.86 56.38, 252.08 59.49, 254.17 62.68 C256.25 65.87, 258.21 69.15, 260.02 72.5 C261.83 75.85, 263.51 79.29, 265.04 82.77 C266.57 86.26, 267.96 89.82, 269.2 93.43 C270.43 97.03, 271.53 100.69, 272.46 104.38 C273.4 108.08, 274.18 111.82, 274.81 115.58 C275.43 119.33, 275.91 123.13, 276.22 126.92 C276.54 130.72, 276.69 134.54, 276.69 138.35" stroke="#1971c2" stroke-width="1" fill="none"></path></g><g stroke-linecap="round"><g transform="translate(213.16297705300474 49.11218731791121) rotate(0 97.06839861444914 0)"><path d="M0 0 C40.18 0, 80.35 0, 194.14 0 M0 0 C41.46 0, 82.91 0, 194.14 0" stroke="#e03131" stroke-width="1" fill="none"></path></g></g><mask></mask><g stroke-linecap="round"><g transform="translate(216.448000944415 48.30664044144277) rotate(0 96.26285173798067 53.30207440229006)"><path d="M0 0 C24.6 28.02, 49.2 56.04, 93.59 106.6 M0 0 C27.84 31.72, 55.68 63.43, 93.59 106.6 M93.59 106.6 C125.62 73.13, 157.66 39.65, 192.53 3.22 M93.59 106.6 C129.23 69.36, 164.88 32.11, 192.53 3.22" stroke="#2f9e44" stroke-width="1" fill="none"></path></g></g><mask></mask><g stroke-linecap="round"><g transform="translate(284.99368030075453 127.49101566771787) rotate(0 23.966002199357604 -6.416918227236863)"><path d="M0 0 C1.64 -1.54, 6.12 -6.89, 9.86 -9.25 C13.61 -11.6, 17.84 -14.11, 22.46 -14.11 C27.09 -14.11, 33.37 -11.81, 37.62 -9.24 C41.86 -6.68, 46.21 -0.47, 47.93 1.28 M0 0 C1.64 -1.54, 6.12 -6.89, 9.86 -9.25 C13.61 -11.6, 17.84 -14.11, 22.46 -14.11 C27.09 -14.11, 33.37 -11.81, 37.62 -9.24 C41.86 -6.68, 46.21 -0.47, 47.93 1.28" stroke="#2f9e44" stroke-width="1" fill="none"></path></g></g><mask></mask><g transform="translate(305.20641129445323 120.45223330396789) rotate(0 4.427083492279053 9.199999999999989)"><text x="0" y="14.720312499999999" font-family="Helvetica, Segoe UI Emoji" font-size="16px" fill="#1971c2" text-anchor="start" style="white-space: pre;" direction="ltr" dominant-baseline="alphabetic">θ</text></g><g transform="translate(359.85139894093334 104.54328122686775) rotate(0 5.75 9.199999999999989)"><text x="0" y="14.720312499999999" font-family="Helvetica, Segoe UI Emoji" font-size="16px" fill="#1971c2" text-anchor="start" style="white-space: pre;" direction="ltr" dominant-baseline="alphabetic">R</text></g><g transform="translate(310.4704598559689 25.031599649382713) rotate(0 5.75 9.199999999999989)"><text x="0" y="14.720312499999999" font-family="Helvetica, Segoe UI Emoji" font-size="16px" fill="#1971c2" text-anchor="start" style="white-space: pre;" direction="ltr" dominant-baseline="alphabetic">D</text></g><g transform="translate(34.271987007863856 66.87985311121679) rotate(0 15.947916984558105 9.199999999999989)"><text x="0" y="14.720312499999999" font-family="Helvetica, Segoe UI Emoji" font-size="16px" fill="#1971c2" text-anchor="start" style="white-space: pre;" direction="ltr" dominant-baseline="alphabetic">Sin  </text></g><g transform="translate(54.623258910481866 60.93921273234025) rotate(0 5.280709620588855 6.730047239399823)"><text x="0" y="10.768304185187791" font-family="Helvetica, Segoe UI Emoji" font-size="11.704429981564909px" fill="#1971c2" text-anchor="start" style="white-space: pre;" direction="ltr" dominant-baseline="alphabetic">-1</text></g><g transform="translate(64.22021198188918 43.4448311725896) rotate(0 8.697523003151979 30.12412673091694)"><text x="0" y="48.19962600746752" font-family="Helvetica, Segoe UI Emoji" font-size="52.38978561898604px" fill="#1971c2" text-anchor="start" style="white-space: pre;" direction="ltr" dominant-baseline="alphabetic">(</text></g><g transform="translate(82.81596102359146 55.162342141903196) rotate(0 5.75 9.199999999999989)"><text x="0" y="14.720312499999999" font-family="Helvetica, Segoe UI Emoji" font-size="16px" fill="#1971c2" text-anchor="start" style="white-space: pre;" direction="ltr" dominant-baseline="alphabetic">D</text></g><g stroke-linecap="round"><g transform="translate(76.12024046969799 76.08646887282032) rotate(0 12.554476038550206 0)"><path d="M0 0 C4.18 0, 20.92 0, 25.11 0 M0 0 C4.18 0, 20.92 0, 25.11 0" stroke="#1971c2" stroke-width="1" fill="none"></path></g></g><mask></mask><g transform="translate(78.95720553893449 80.27129421900372) rotate(0 10.177083015441895 9.199999999999989)"><text x="0" y="14.720312499999999" font-family="Helvetica, Segoe UI Emoji" font-size="16px" fill="#1971c2" text-anchor="start" style="white-space: pre;" direction="ltr" dominant-baseline="alphabetic">2R</text></g><g transform="translate(117.96849393153224 65.20592297274334) rotate(0 11.302083015441895 9.199999999999989)"><text x="0" y="14.720312499999999" font-family="Helvetica, Segoe UI Emoji" font-size="16px" fill="#1971c2" text-anchor="start" style="white-space: pre;" direction="ltr" dominant-baseline="alphabetic">= θ</text></g><g transform="translate(96.07485718959936 44.288412003429926) rotate(0 8.739583015441895 30.124126730917)"><text x="0" y="48.19962600746752" font-family="Helvetica, Segoe UI Emoji" font-size="52.38978561898604px" fill="#1971c2" text-anchor="start" style="white-space: pre;" direction="ltr" dominant-baseline="alphabetic">)</text></g></svg>