<svg version="1.1" xmlns="http://www.w3.org/2000/svg" viewBox="0 0 507.70507638591926 319.881094365526" width="507.70507638591926" height="319.881094365526">
    <!-- svg-source:excalidraw -->
    
    <defs>
      <style class="style-fonts">
        @font-face {
          font-family: "Virgil";
          src: url("https://excalidraw.com/Virgil.woff2");
        }
        @font-face {
          font-family: "Cascadia";
          src: url("https://excalidraw.com/Cascadia.woff2");
        }
        @font-face {
          font-family: "Assistant";
          src: url("https://app.excalidraw.com//dist/excalidraw-assets/Assistant-Regular.woff2");
        }
      </style>
      
    </defs>
    <rect x="0" y="0" width="507.70507638591926" height="319.881094365526" fill="#ffffff"></rect><g stroke-linecap="round" transform="translate(10 25.868564718619496) rotate(0 97.5064305660736 66.12024046969799)"><path d="M32 0 C70.6 0, 109.21 0, 163.01 0 C184.35 0, 195.01 10.67, 195.01 32 C195.01 56.87, 195.01 81.73, 195.01 100.24 C195.01 121.57, 184.35 132.24, 163.01 132.24 C126.82 132.24, 90.63 132.24, 32 132.24 C10.67 132.24, 0 121.57, 0 100.24 C0 80.08, 0 59.92, 0 32 C0 10.67, 10.67 0, 32 0" stroke="none" stroke-width="0" fill="#e9ecef"></path><path d="M32 0 C71.69 0, 111.38 0, 163.01 0 M32 0 C74.24 0, 116.48 0, 163.01 0 M163.01 0 C184.35 0, 195.01 10.67, 195.01 32 M163.01 0 C184.35 0, 195.01 10.67, 195.01 32 M195.01 32 C195.01 49.39, 195.01 66.77, 195.01 100.24 M195.01 32 C195.01 50.64, 195.01 69.28, 195.01 100.24 M195.01 100.24 C195.01 121.57, 184.35 132.24, 163.01 132.24 M195.01 100.24 C195.01 121.57, 184.35 132.24, 163.01 132.24 M163.01 132.24 C133.36 132.24, 103.7 132.24, 32 132.24 M163.01 132.24 C114.58 132.24, 66.14 132.24, 32 132.24 M32 132.24 C10.67 132.24, 0 121.57, 0 100.24 M32 132.24 C10.67 132.24, 0 121.57, 0 100.24 M0 100.24 C0 84.85, 0 69.46, 0 32 M0 100.24 C0 77.5, 0 54.76, 0 32 M0 32 C0 10.67, 10.67 0, 32 0 M0 32 C0 10.67, 10.67 0, 32 0" stroke="#1971c2" stroke-width="1" fill="none"></path></g><g stroke-linecap="round" transform="translate(221.01140438022654 10.000000000000114) rotate(0 138.34683600284637 138.34683600284637)"><path d="M276.69 138.35 C276.69 142.16, 276.54 145.98, 276.22 149.77 C275.91 153.57, 275.43 157.36, 274.81 161.12 C274.18 164.87, 273.4 168.62, 272.46 172.31 C271.53 176, 270.43 179.67, 269.2 183.27 C267.96 186.87, 266.57 190.43, 265.04 193.92 C263.51 197.41, 261.83 200.84, 260.02 204.19 C258.21 207.54, 256.25 210.83, 254.17 214.02 C252.08 217.2, 249.86 220.32, 247.52 223.32 C245.18 226.33, 242.71 229.24, 240.13 232.05 C237.55 234.85, 234.85 237.55, 232.05 240.13 C229.24 242.71, 226.33 245.18, 223.32 247.52 C220.32 249.86, 217.2 252.08, 214.02 254.17 C210.83 256.25, 207.54 258.21, 204.19 260.02 C200.84 261.83, 197.41 263.51, 193.92 265.04 C190.43 266.57, 186.87 267.96, 183.27 269.2 C179.67 270.43, 176 271.53, 172.31 272.46 C168.62 273.4, 164.87 274.18, 161.12 274.81 C157.36 275.43, 153.57 275.91, 149.77 276.22 C145.98 276.54, 142.16 276.69, 138.35 276.69 C134.54 276.69, 130.72 276.54, 126.92 276.22 C123.13 275.91, 119.33 275.43, 115.58 274.81 C111.82 274.18, 108.08 273.4, 104.38 272.46 C100.69 271.53, 97.03 270.43, 93.43 269.2 C89.82 267.96, 86.26 266.57, 82.77 265.04 C79.29 263.51, 75.85 261.83, 72.5 260.02 C69.15 258.21, 65.87 256.25, 62.68 254.17 C59.49 252.08, 56.38 249.86, 53.37 247.52 C50.37 245.18, 47.45 242.71, 44.65 240.13 C41.85 237.55, 39.14 234.85, 36.56 232.05 C33.98 229.24, 31.51 226.33, 29.17 223.32 C26.83 220.32, 24.61 217.2, 22.53 214.02 C20.44 210.83, 18.49 207.54, 16.67 204.19 C14.86 200.84, 13.18 197.41, 11.65 193.92 C10.12 190.43, 8.73 186.87, 7.5 183.27 C6.26 179.67, 5.17 176, 4.23 172.31 C3.3 168.62, 2.51 164.87, 1.89 161.12 C1.26 157.36, 0.79 153.57, 0.47 149.77 C0.16 145.98, 0 142.16, 0 138.35 C0 134.54, 0.16 130.72, 0.47 126.92 C0.79 123.13, 1.26 119.33, 1.89 115.58 C2.51 111.82, 3.3 108.08, 4.23 104.38 C5.17 100.69, 6.26 97.03, 7.5 93.43 C8.73 89.82, 10.12 86.26, 11.65 82.77 C13.18 79.29, 14.86 75.85, 16.67 72.5 C18.49 69.15, 20.44 65.87, 22.53 62.68 C24.61 59.49, 26.83 56.38, 29.17 53.37 C31.51 50.37, 33.98 47.45, 36.56 44.65 C39.14 41.85, 41.85 39.14, 44.65 36.56 C47.45 33.98, 50.37 31.51, 53.37 29.17 C56.38 26.83, 59.49 24.61, 62.68 22.53 C65.87 20.44, 69.15 18.49, 72.5 16.67 C75.85 14.86, 79.29 13.18, 82.77 11.65 C86.26 10.12, 89.82 8.73, 93.43 7.5 C97.03 6.26, 100.69 5.17, 104.38 4.23 C108.08 3.3, 111.82 2.51, 115.58 1.89 C119.33 1.26, 123.13 0.79, 126.92 0.47 C130.72 0.16, 134.54 0, 138.35 0 C142.16 0, 145.98 0.16, 149.77 0.47 C153.57 0.79, 157.36 1.26, 161.12 1.89 C164.87 2.51, 168.62 3.3, 172.31 4.23 C176 5.17, 179.67 6.26, 183.27 7.5 C186.87 8.73, 190.43 10.12, 193.92 11.65 C197.41 13.18, 200.84 14.86, 204.19 16.67 C207.54 18.49, 210.83 20.44, 214.02 22.53 C217.2 24.61, 220.32 26.83, 223.32 29.17 C226.33 31.51, 229.24 33.98, 232.05 36.56 C234.85 39.14, 237.55 41.85, 240.13 44.65 C242.71 47.45, 245.18 50.37, 247.52 53.37 C249.86 56.38, 252.08 59.49, 254.17 62.68 C256.25 65.87, 258.21 69.15, 260.02 72.5 C261.83 75.85, 263.51 79.29, 265.04 82.77 C266.57 86.26, 267.96 89.82, 269.2 93.43 C270.43 97.03, 271.53 100.69, 272.46 104.38 C273.4 108.08, 274.18 111.82, 274.81 115.58 C275.43 119.33, 275.91 123.13, 276.22 126.92 C276.54 130.72, 276.69 134.54, 276.69 138.35" stroke="#1971c2" stroke-width="1" fill="none"></path></g><g stroke-linecap="round"><g transform="translate(261.70695106873234 49.11218731791121) rotate(0 97.06839861444914 0)"><path d="M0 0 C66.54 0, 133.09 0, 194.14 0 M0 0 C43.09 0, 86.19 0, 194.14 0" stroke="#e03131" stroke-width="1" fill="none"></path></g></g><mask></mask><g stroke-linecap="round"><g transform="translate(264.99197496014267 48.30664044144294) rotate(0 96.26285173798067 53.30207440229003)"><path d="M0 0 C32.65 37.19, 65.29 74.37, 93.59 106.6 M0 0 C20.87 23.77, 41.73 47.54, 93.59 106.6 M93.59 106.6 C117.62 81.49, 141.66 56.37, 192.53 3.22 M93.59 106.6 C124.27 74.54, 154.96 42.47, 192.53 3.22" stroke="#2f9e44" stroke-width="1" fill="none"></path></g></g><mask></mask><g stroke-linecap="round"><g transform="translate(333.5376543164822 127.49101566771799) rotate(0 23.966002199357604 -6.416918227236863)"><path d="M0 0 C1.64 -1.54, 6.12 -6.89, 9.86 -9.25 C13.61 -11.6, 17.84 -14.11, 22.46 -14.11 C27.09 -14.11, 33.37 -11.81, 37.62 -9.24 C41.86 -6.68, 46.21 -0.47, 47.93 1.28 M0 0 C1.64 -1.54, 6.12 -6.89, 9.86 -9.25 C13.61 -11.6, 17.84 -14.11, 22.46 -14.11 C27.09 -14.11, 33.37 -11.81, 37.62 -9.24 C41.86 -6.68, 46.21 -0.47, 47.93 1.28" stroke="#2f9e44" stroke-width="1" fill="none"></path></g></g><mask></mask><g transform="translate(353.75038531018083 120.452233303968) rotate(0 5.191666603088379 9.199999999999989)"><text x="0" y="14.720312499999999" font-family="Helvetica, Segoe UI Emoji" font-size="16px" fill="#1971c2" text-anchor="start" style="white-space: pre;" direction="ltr" dominant-baseline="alphabetic">φ</text></g><g transform="translate(408.39537295666094 104.54328122686786) rotate(0 5.75 9.199999999999989)"><text x="0" y="14.720312499999999" font-family="Helvetica, Segoe UI Emoji" font-size="16px" fill="#1971c2" text-anchor="start" style="white-space: pre;" direction="ltr" dominant-baseline="alphabetic">R</text></g><g transform="translate(359.0144338716965 25.031599649382883) rotate(0 5.75 9.199999999999989)"><text x="0" y="14.720312499999999" font-family="Helvetica, Segoe UI Emoji" font-size="16px" fill="#1971c2" text-anchor="start" style="white-space: pre;" direction="ltr" dominant-baseline="alphabetic">D</text></g><g transform="translate(31.76109180015382 63.53199283427023) rotate(0 16.008333206176758 9.199999999999989)"><text x="0" y="14.720312499999999" font-family="Helvetica, Segoe UI Emoji" font-size="16px" fill="#1971c2" text-anchor="start" style="white-space: pre;" direction="ltr" dominant-baseline="alphabetic">Sin  </text></g><g transform="translate(52.11236370277183 57.591352455393576) rotate(0 5.280709620588854 6.730047239399823)"><text x="0" y="10.768304185187791" font-family="Helvetica, Segoe UI Emoji" font-size="11.704429981564909px" fill="#1971c2" text-anchor="start" style="white-space: pre;" direction="ltr" dominant-baseline="alphabetic">-1</text></g><g transform="translate(61.70931677417914 40.09697089564304) rotate(0 8.697523003151977 30.124126730917)"><text x="0" y="48.19962600746752" font-family="Helvetica, Segoe UI Emoji" font-size="52.38978561898604px" fill="#1971c2" text-anchor="start" style="white-space: pre;" direction="ltr" dominant-baseline="alphabetic">(</text></g><g transform="translate(80.30506581588142 51.81448186495675) rotate(0 5.75 9.199999999999989)"><text x="0" y="14.720312499999999" font-family="Helvetica, Segoe UI Emoji" font-size="16px" fill="#1971c2" text-anchor="start" style="white-space: pre;" direction="ltr" dominant-baseline="alphabetic">D</text></g><g stroke-linecap="round"><g transform="translate(73.60934526198795 72.73860859587387) rotate(0 12.554476038550206 0)"><path d="M0 0 C4.18 0, 20.92 0, 25.11 0 M0 0 C4.18 0, 20.92 0, 25.11 0" stroke="#1971c2" stroke-width="1" fill="none"></path></g></g><mask></mask><g transform="translate(76.44631033122445 76.92343394205716) rotate(0 10.177083015441895 9.199999999999989)"><text x="0" y="14.720312499999999" font-family="Helvetica, Segoe UI Emoji" font-size="16px" fill="#1971c2" text-anchor="start" style="white-space: pre;" direction="ltr" dominant-baseline="alphabetic">2R</text></g><g transform="translate(128.8490398316093 72.73860859587364) rotate(0 25.94897172708386 20.69999999999999)"><text x="0" y="33.120703125" font-family="Helvetica, Segoe UI Emoji" font-size="36px" fill="#1971c2" text-anchor="start" style="white-space: pre;" direction="ltr" dominant-baseline="alphabetic">= </text></g><g transform="translate(93.56396198188932 40.94055172648325) rotate(0 8.739583015441895 30.124126730917)"><text x="0" y="48.19962600746752" font-family="Helvetica, Segoe UI Emoji" font-size="52.38978561898604px" fill="#1971c2" text-anchor="start" style="white-space: pre;" direction="ltr" dominant-baseline="alphabetic">)</text></g><g stroke-linecap="round"><g transform="translate(29.545899637528834 109.00947774872247) rotate(0 43.940666134925806 0)"><path d="M0 0 C14.65 0, 73.23 0, 87.88 0 M0 0 C14.65 0, 73.23 0, 87.88 0" stroke="#1971c2" stroke-width="1" fill="none"></path></g></g><mask></mask><g transform="translate(82.32617802524231 121.93788392574595) rotate(0 5.1523185424947116 10.65641916915979)"><text x="0" y="17.050632641415493" font-family="Helvetica, Segoe UI Emoji" font-size="18.5329029028866px" fill="#1971c2" text-anchor="start" style="white-space: pre;" direction="ltr" dominant-baseline="alphabetic">θ</text></g><g transform="translate(50.217845542062804 122.3596743411664) rotate(0 16.008333206176758 9.199999999999989)"><text x="0" y="14.720312499999999" font-family="Helvetica, Segoe UI Emoji" font-size="16px" fill="#1971c2" text-anchor="start" style="white-space: pre;" direction="ltr" dominant-baseline="alphabetic">Sin  </text></g><g transform="translate(73.47034996219472 113.99002364879914) rotate(0 4.347806440882552 15.058755484656729)"><text x="0" y="24.0945202820909" font-family="Helvetica, Segoe UI Emoji" font-size="26.189139973316085px" fill="#1971c2" text-anchor="start" style="white-space: pre;" direction="ltr" dominant-baseline="alphabetic">(</text></g><g transform="translate(91.33583171218842 114.08574420269258) rotate(0 8.650000095367432 15.058755484656729)"><text x="0" y="24.0945202820909" font-family="Helvetica, Segoe UI Emoji" font-size="26.189139973316085px" fill="#1971c2" text-anchor="start" style="white-space: pre;" direction="ltr" dominant-baseline="alphabetic">)</text></g><g transform="translate(160.15496121703015 65.71142087933197) rotate(0 11.675000190734863 20.69999999999999)"><text x="0" y="33.120703125" font-family="Helvetica, Segoe UI Emoji" font-size="36px" fill="#1971c2" text-anchor="start" style="white-space: pre;" direction="ltr" dominant-baseline="alphabetic">φ</text></g><g stroke-linecap="round" transform="translate(34.567690052948905 179.3145435646037) rotate(0 61.9354151235145 65.28327540046115)"><path d="M123.87 65.28 C123.87 67.91, 123.72 70.55, 123.42 73.15 C123.12 75.76, 122.67 78.36, 122.07 80.91 C121.48 83.45, 120.73 85.98, 119.85 88.43 C118.96 90.89, 117.93 93.3, 116.78 95.62 C115.62 97.94, 114.32 100.21, 112.91 102.37 C111.49 104.53, 109.94 106.61, 108.29 108.57 C106.64 110.54, 104.87 112.41, 103.01 114.15 C101.14 115.89, 99.17 117.52, 97.12 119.01 C95.07 120.5, 92.92 121.87, 90.72 123.09 C88.51 124.31, 86.22 125.39, 83.9 126.32 C81.57 127.25, 79.17 128.04, 76.76 128.67 C74.34 129.3, 71.87 129.77, 69.4 130.09 C66.93 130.41, 64.42 130.57, 61.94 130.57 C59.45 130.57, 56.94 130.41, 54.47 130.09 C52 129.77, 49.53 129.3, 47.11 128.67 C44.7 128.04, 42.3 127.25, 39.97 126.32 C37.65 125.39, 35.36 124.31, 33.15 123.09 C30.95 121.87, 28.8 120.5, 26.75 119.01 C24.7 117.52, 22.73 115.89, 20.86 114.15 C19 112.41, 17.23 110.54, 15.58 108.57 C13.93 106.61, 12.38 104.53, 10.96 102.37 C9.55 100.21, 8.25 97.94, 7.09 95.62 C5.94 93.3, 4.91 90.89, 4.02 88.43 C3.14 85.98, 2.4 83.45, 1.8 80.91 C1.2 78.36, 0.75 75.76, 0.45 73.15 C0.15 70.55, 0 67.91, 0 65.28 C0 62.66, 0.15 60.02, 0.45 57.41 C0.75 54.81, 1.2 52.21, 1.8 49.66 C2.4 47.11, 3.14 44.59, 4.02 42.13 C4.91 39.68, 5.94 37.27, 7.09 34.94 C8.25 32.62, 9.55 30.36, 10.96 28.2 C12.38 26.04, 13.93 23.96, 15.58 21.99 C17.23 20.03, 19 18.16, 20.86 16.42 C22.73 14.68, 24.7 13.05, 26.75 11.56 C28.8 10.07, 30.95 8.7, 33.15 7.48 C35.36 6.26, 37.65 5.17, 39.97 4.24 C42.3 3.31, 44.7 2.52, 47.11 1.9 C49.53 1.27, 52 0.79, 54.47 0.48 C56.94 0.16, 59.45 0, 61.94 0 C64.42 0, 66.93 0.16, 69.4 0.48 C71.87 0.79, 74.34 1.27, 76.76 1.9 C79.17 2.52, 81.57 3.31, 83.9 4.24 C86.22 5.17, 88.51 6.26, 90.72 7.48 C92.92 8.7, 95.07 10.07, 97.12 11.56 C99.17 13.05, 101.14 14.68, 103.01 16.42 C104.87 18.16, 106.64 20.03, 108.29 21.99 C109.94 23.96, 111.49 26.04, 112.91 28.2 C114.32 30.36, 115.62 32.62, 116.78 34.94 C117.93 37.27, 118.96 39.68, 119.85 42.13 C120.73 44.59, 121.48 47.11, 122.07 49.66 C122.67 52.21, 123.12 54.81, 123.42 57.41 C123.72 60.02, 123.87 62.66, 123.87 65.28" stroke="#1971c2" stroke-width="1" fill="none"></path></g><g stroke-linecap="round" transform="translate(41.83970499620537 202.91712064772344) rotate(0 53.173320644864496 6.3188652002901335)"><path d="M106.35 6.32 C106.35 6.65, 106.13 6.98, 105.69 7.31 C105.26 7.63, 104.6 7.96, 103.74 8.27 C102.89 8.58, 101.81 8.89, 100.55 9.19 C99.29 9.48, 97.82 9.77, 96.19 10.03 C94.56 10.3, 92.73 10.55, 90.77 10.79 C88.81 11.02, 86.67 11.24, 84.43 11.43 C82.18 11.62, 79.78 11.8, 77.31 11.95 C74.84 12.1, 72.24 12.23, 69.6 12.33 C66.97 12.43, 64.23 12.51, 61.49 12.56 C58.75 12.61, 55.95 12.64, 53.17 12.64 C50.4 12.64, 47.59 12.61, 44.86 12.56 C42.12 12.51, 39.38 12.43, 36.74 12.33 C34.1 12.23, 31.5 12.1, 29.03 11.95 C26.56 11.8, 24.16 11.62, 21.92 11.43 C19.68 11.24, 17.53 11.02, 15.57 10.79 C13.61 10.55, 11.78 10.3, 10.16 10.03 C8.53 9.77, 7.05 9.48, 5.8 9.19 C4.54 8.89, 3.46 8.58, 2.6 8.27 C1.75 7.96, 1.09 7.63, 0.65 7.31 C0.22 6.98, 0 6.65, 0 6.32 C0 5.99, 0.22 5.66, 0.65 5.33 C1.09 5, 1.75 4.68, 2.6 4.37 C3.46 4.05, 4.54 3.74, 5.8 3.45 C7.05 3.16, 8.53 2.87, 10.16 2.6 C11.78 2.34, 13.61 2.08, 15.57 1.85 C17.53 1.62, 19.68 1.4, 21.92 1.21 C24.16 1.01, 26.56 0.84, 29.03 0.69 C31.5 0.54, 34.1 0.41, 36.74 0.31 C39.38 0.21, 42.12 0.13, 44.86 0.08 C47.59 0.03, 50.4 0, 53.17 0 C55.95 0, 58.75 0.03, 61.49 0.08 C64.23 0.13, 66.97 0.21, 69.6 0.31 C72.24 0.41, 74.84 0.54, 77.31 0.69 C79.78 0.84, 82.18 1.01, 84.43 1.21 C86.67 1.4, 88.81 1.62, 90.77 1.85 C92.73 2.08, 94.56 2.34, 96.19 2.6 C97.82 2.87, 99.29 3.16, 100.55 3.45 C101.81 3.74, 102.89 4.05, 103.74 4.37 C104.6 4.68, 105.26 5, 105.69 5.33 C106.13 5.66, 106.24 6.15, 106.35 6.32 C106.46 6.48, 106.46 6.15, 106.35 6.32" stroke="#1971c2" stroke-width="1" fill="none"></path></g><g stroke-linecap="round"><g transform="translate(95.66614010722677 179.31454356460358) rotate(0 0 33.47860276946733)"><path d="M0 0 C0 11.16, 0 55.8, 0 66.96 M0 0 C0 11.16, 0 55.8, 0 66.96" stroke="#1971c2" stroke-width="1" fill="none"></path></g></g><mask></mask><g stroke-linecap="round"><g transform="translate(94.8291750379901 229.53244771880463) rotate(0 -6.329399951666446 4.089564593396744)"><path d="M0 0 C-0.9 0.12, -3.79 0.16, -5.43 0.69 C-7.06 1.22, -8.59 1.93, -9.8 3.18 C-11 4.43, -12.18 7.35, -12.66 8.18 M0 0 C-0.9 0.12, -3.79 0.16, -5.43 0.69 C-7.06 1.22, -8.59 1.93, -9.8 3.18 C-11 4.43, -12.18 7.35, -12.66 8.18" stroke="#1971c2" stroke-width="1" fill="none"></path></g></g><mask></mask><g transform="translate(102.57739346580946 228.6093064801289) rotate(0 4.455876243521729 9.21598395464838)"><text x="0" y="14.745887370370683" font-family="Helvetica, Segoe UI Emoji" font-size="16.02779818199722px" fill="#1971c2" text-anchor="start" style="white-space: pre;" direction="ltr" dominant-baseline="alphabetic">θ</text></g><g stroke-linecap="round"><g transform="translate(144.86363132542937 206.3711271147821) rotate(0 31.8426927799526 -12.598964268574889)"><path d="M0 0 C10.61 -4.2, 53.07 -21, 63.69 -25.2 M0 0 C10.61 -4.2, 53.07 -21, 63.69 -25.2" stroke="#1971c2" stroke-width="1" fill="none"></path></g><g transform="translate(144.86363132542937 206.3711271147821) rotate(0 31.8426927799526 -12.598964268574889)"><path d="M44.99 -8.6 C52.02 -14.85, 59.06 -21.09, 63.69 -25.2 M44.99 -8.6 C51.61 -14.48, 58.22 -20.35, 63.69 -25.2" stroke="#1971c2" stroke-width="1" fill="none"></path></g><g transform="translate(144.86363132542937 206.3711271147821) rotate(0 31.8426927799526 -12.598964268574889)"><path d="M38.69 -24.51 C48.1 -24.77, 57.5 -25.03, 63.69 -25.2 M38.69 -24.51 C47.54 -24.75, 56.39 -25, 63.69 -25.2" stroke="#1971c2" stroke-width="1" fill="none"></path></g></g><mask></mask><g stroke-linecap="round"><g transform="translate(43.68756711145184 211.8050175586169) rotate(0 25.992299628443817 17.27443141027885)"><path d="M0 0 C8.66 5.76, 43.32 28.79, 51.98 34.55 M0 0 C8.66 5.76, 43.32 28.79, 51.98 34.55" stroke="#1971c2" stroke-width="1" fill="none"></path></g></g><mask></mask><g stroke-linecap="round" transform="translate(34.567574924553924 242.36065516491226) rotate(0 61.67837266115139 6.825650898518177)"><path d="M123.36 6.83 C123.36 7.15, 123.15 7.48, 122.73 7.8 C122.31 8.12, 121.68 8.44, 120.86 8.75 C120.03 9.06, 119 9.37, 117.78 9.66 C116.57 9.96, 115.15 10.24, 113.57 10.52 C111.98 10.79, 110.21 11.05, 108.29 11.3 C106.38 11.54, 104.28 11.77, 102.07 11.98 C99.86 12.2, 97.49 12.39, 95.02 12.57 C92.56 12.74, 89.96 12.9, 87.3 13.03 C84.64 13.17, 81.86 13.28, 79.06 13.37 C76.25 13.47, 73.35 13.54, 70.46 13.58 C67.56 13.63, 64.6 13.65, 61.68 13.65 C58.75 13.65, 55.8 13.63, 52.9 13.58 C50 13.54, 47.11 13.47, 44.3 13.37 C41.49 13.28, 38.72 13.17, 36.06 13.03 C33.39 12.9, 30.79 12.74, 28.33 12.57 C25.87 12.39, 23.5 12.2, 21.29 11.98 C19.08 11.77, 16.98 11.54, 15.06 11.3 C13.15 11.05, 11.37 10.79, 9.79 10.52 C8.21 10.24, 6.79 9.96, 5.57 9.66 C4.36 9.37, 3.32 9.06, 2.5 8.75 C1.67 8.44, 1.04 8.12, 0.63 7.8 C0.21 7.48, 0 7.15, 0 6.83 C0 6.5, 0.21 6.17, 0.63 5.85 C1.04 5.53, 1.67 5.21, 2.5 4.9 C3.32 4.59, 4.36 4.28, 5.57 3.99 C6.79 3.7, 8.21 3.41, 9.79 3.14 C11.37 2.86, 13.15 2.6, 15.06 2.36 C16.98 2.11, 19.08 1.88, 21.29 1.67 C23.5 1.46, 25.87 1.26, 28.33 1.08 C30.79 0.91, 33.39 0.75, 36.06 0.62 C38.72 0.48, 41.49 0.37, 44.3 0.28 C47.11 0.19, 50 0.12, 52.9 0.07 C55.8 0.02, 58.75 0, 61.68 0 C64.6 0, 67.56 0.02, 70.46 0.07 C73.35 0.12, 76.25 0.19, 79.06 0.28 C81.86 0.37, 84.64 0.48, 87.3 0.62 C89.96 0.75, 92.56 0.91, 95.02 1.08 C97.49 1.26, 99.86 1.46, 102.07 1.67 C104.28 1.88, 106.38 2.11, 108.29 2.36 C110.21 2.6, 111.98 2.86, 113.57 3.14 C115.15 3.41, 116.57 3.7, 117.78 3.99 C119 4.28, 120.03 4.59, 120.86 4.9 C121.68 5.21, 122.31 5.53, 122.73 5.85 C123.15 6.17, 123.25 6.66, 123.36 6.83 C123.46 6.99, 123.46 6.66, 123.36 6.83" stroke="#1971c2" stroke-width="1" fill="none"></path></g><g stroke-linecap="round" transform="translate(42.6701953207321 273.42070001692855) rotate(0 53.125606687407725 5.47521416582174)"><path d="M106.25 5.48 C106.25 5.76, 106.03 6.05, 105.6 6.33 C105.16 6.61, 104.51 6.9, 103.65 7.17 C102.8 7.44, 101.72 7.71, 100.46 7.96 C99.2 8.22, 97.73 8.46, 96.11 8.69 C94.48 8.92, 92.65 9.14, 90.69 9.35 C88.73 9.55, 86.59 9.74, 84.35 9.9 C82.11 10.07, 79.71 10.22, 77.24 10.35 C74.78 10.48, 72.18 10.59, 69.54 10.68 C66.91 10.77, 64.17 10.84, 61.44 10.88 C58.7 10.93, 55.9 10.95, 53.13 10.95 C50.36 10.95, 47.55 10.93, 44.81 10.88 C42.08 10.84, 39.34 10.77, 36.71 10.68 C34.07 10.59, 31.48 10.48, 29.01 10.35 C26.54 10.22, 24.14 10.07, 21.9 9.9 C19.66 9.74, 17.52 9.55, 15.56 9.35 C13.6 9.14, 11.77 8.92, 10.15 8.69 C8.52 8.46, 7.05 8.22, 5.79 7.96 C4.53 7.71, 3.46 7.44, 2.6 7.17 C1.74 6.9, 1.09 6.61, 0.65 6.33 C0.22 6.05, 0 5.76, 0 5.48 C0 5.19, 0.22 4.9, 0.65 4.62 C1.09 4.34, 1.74 4.05, 2.6 3.78 C3.46 3.51, 4.53 3.24, 5.79 2.99 C7.05 2.74, 8.52 2.49, 10.15 2.26 C11.77 2.03, 13.6 1.81, 15.56 1.6 C17.52 1.4, 19.66 1.21, 21.9 1.05 C24.14 0.88, 26.54 0.73, 29.01 0.6 C31.48 0.47, 34.07 0.36, 36.71 0.27 C39.34 0.18, 42.08 0.11, 44.81 0.07 C47.55 0.02, 50.36 0, 53.13 0 C55.9 0, 58.7 0.02, 61.44 0.07 C64.17 0.11, 66.91 0.18, 69.54 0.27 C72.18 0.36, 74.78 0.47, 77.24 0.6 C79.71 0.73, 82.11 0.88, 84.35 1.05 C86.59 1.21, 88.73 1.4, 90.69 1.6 C92.65 1.81, 94.48 2.03, 96.11 2.26 C97.73 2.49, 99.2 2.74, 100.46 2.99 C101.72 3.24, 102.8 3.51, 103.65 3.78 C104.51 4.05, 105.16 4.34, 105.6 4.62 C106.03 4.9, 106.14 5.33, 106.25 5.48 C106.36 5.62, 106.36 5.33, 106.25 5.48" stroke="#1971c2" stroke-width="1" fill="none"></path></g></svg>